[Header]
FileType HTR
DataType HTRS
FileVersion 1
NumSegments 64
NumFrames 3
DataFrameRate 24
EulerRotationOrder ZYX
CalibrationUnits mm
RotationUnits Degrees
GlobalAxisofGravity Y
BoneLengthAxis Y
ScaleFactor 1.0
[SegmentNames&Hierarchy]
Hips	GLOBAL
Spine	Hips
Spine1	Spine
Spine2	Spine1
Neck	Spine2
Head	Neck
LeftEye	Head
RightEye	Head
LeftShoulder	Spine2
LeftArm	LeftShoulder
LeftForeArm	LeftArm
LeftHand	LeftForeArm
LeftHandThumb1	LeftHand
LeftHandThumb2	LeftHandThumb1
LeftHandThumb3	LeftHandThumb2
LeftHandThumb4	LeftHandThumb3
LeftHandIndex1	LeftHand
LeftHandIndex2	LeftHandIndex1
LeftHandIndex3	LeftHandIndex2
LeftHandIndex4	LeftHandIndex3
LeftHandMiddle1	LeftHand
LeftHandMiddle2	LeftHandMiddle1
LeftHandMiddle3	LeftHandMiddle2
LeftHandMiddle4	LeftHandMiddle3
LeftHandRing1	LeftHand
LeftHandRing2	LeftHandRing1
LeftHandRing3	LeftHandRing2
LeftHandRing4	LeftHandRing3
LeftHandPinky1	LeftHand
LeftHandPinky2	LeftHandPinky1
LeftHandPinky3	LeftHandPinky2
LeftHandPinky4	LeftHandPinky3
RightShoulder	Spine2
RightArm	RightShoulder
RightForeArm	RightArm
RightHand	RightForeArm
RightHandPinky1	RightHand
RightHandPinky2	RightHandPinky1
RightHandPinky3	RightHandPinky2
RightHandPinky4	RightHandPinky3
RightHandRing1	RightHand
RightHandRing2	RightHandRing1
RightHandRing3	RightHandRing2
RightHandRing4	RightHandRing3
RightHandMiddle1	RightHand
RightHandMiddle2	RightHandMiddle1
RightHandMiddle3	RightHandMiddle2
RightHandMiddle4	RightHandMiddle3
RightHandIndex1	RightHand
RightHandIndex2	RightHandIndex1
RightHandIndex3	RightHandIndex2
RightHandIndex4	RightHandIndex3
RightHandThumb1	RightHand
RightHandThumb2	RightHandThumb1
RightHandThumb3	RightHandThumb2
RightHandThumb4	RightHandThumb3
LeftUpLeg	Hips
LeftLeg	LeftUpLeg
LeftFoot	LeftLeg
LeftToeBase	LeftFoot
RightUpLeg	Hips
RightLeg	RightUpLeg
RightFoot	RightLeg
RightToeBase	RightFoot
[BasePosition]
Hips	0	0	0	0	0	0	1
Spine	0	0	0	0	0	0	1
Spine1	0	0	0	0	0	0	1
Spine2	0	0	0	0	0	0	1
Neck	0	0	0	0	0	0	1
Head	0	0	0	0	0	0	1
LeftEye	0	0	0	0	0	0	1
RightEye	0	0	0	0	0	0	1
LeftShoulder	0	0	0	0	0	0	1
LeftArm	0	0	0	0	0	0	1
LeftForeArm	0	0	0	0	0	0	1
LeftHand	0	0	0	0	0	0	1
LeftHandThumb1	0	0	0	0	0	0	1
LeftHandThumb2	0	0	0	0	0	0	1
LeftHandThumb3	0	0	0	0	0	0	1
LeftHandThumb4	0	0	0	0	0	0	1
LeftHandIndex1	0	0	0	0	0	0	1
LeftHandIndex2	0	0	0	0	0	0	1
LeftHandIndex3	0	0	0	0	0	0	1
LeftHandIndex4	0	0	0	0	0	0	1
LeftHandMiddle1	0	0	0	0	0	0	1
LeftHandMiddle2	0	0	0	0	0	0	1
LeftHandMiddle3	0	0	0	0	0	0	1
LeftHandMiddle4	0	0	0	0	0	0	1
LeftHandRing1	0	0	0	0	0	0	1
LeftHandRing2	0	0	0	0	0	0	1
LeftHandRing3	0	0	0	0	0	0	1
LeftHandRing4	0	0	0	0	0	0	1
LeftHandPinky1	0	0	0	0	0	0	1
LeftHandPinky2	0	0	0	0	0	0	1
LeftHandPinky3	0	0	0	0	0	0	1
LeftHandPinky4	0	0	0	0	0	0	1
RightShoulder	0	0	0	0	0	0	1
RightArm	0	0	0	0	0	0	1
RightForeArm	0	0	0	0	0	0	1
RightHand	0	0	0	0	0	0	1
RightHandPinky1	0	0	0	0	0	0	1
RightHandPinky2	0	0	0	0	0	0	1
RightHandPinky3	0	0	0	0	0	0	1
RightHandPinky4	0	0	0	0	0	0	1
RightHandRing1	0	0	0	0	0	0	1
RightHandRing2	0	0	0	0	0	0	1
RightHandRing3	0	0	0	0	0	0	1
RightHandRing4	0	0	0	0	0	0	1
RightHandMiddle1	0	0	0	0	0	0	1
RightHandMiddle2	0	0	0	0	0	0	1
RightHandMiddle3	0	0	0	0	0	0	1
RightHandMiddle4	0	0	0	0	0	0	1
RightHandIndex1	0	0	0	0	0	0	1
RightHandIndex2	0	0	0	0	0	0	1
RightHandIndex3	0	0	0	0	0	0	1
RightHandIndex4	0	0	0	0	0	0	1
RightHandThumb1	0	0	0	0	0	0	1
RightHandThumb2	0	0	0	0	0	0	1
RightHandThumb3	0	0	0	0	0	0	1
RightHandThumb4	0	0	0	0	0	0	1
LeftUpLeg	0	0	0	0	0	0	1
LeftLeg	0	0	0	0	0	0	1
LeftFoot	0	0	0	0	0	0	1
LeftToeBase	0	0	0	0	0	0	1
RightUpLeg	0	0	0	0	0	0	1
RightLeg	0	0	0	0	0	0	1
RightFoot	0	0	0	0	0	0	1
RightToeBase	0	0	0	0	0	0	1
[Hips]
13	21.06951714	1012.499634	1887.803833	12.90771389	-0.4158607423	-6.805726051	1.0
14	19.87038803	993.9559326	2038.199707	10.90347576	-2.431463957	-6.339890003	1.0
15	14.90476799	967.3585205	2189.496826	7.530585289	-2.8738029	-6.039245605	1.0
[Spine]
13	0	101.8159943	1.315000057	1.637657285	1.400465608	6.481212616	1.0
14	0	101.8159943	1.315000057	3.185694218	1.527496815	6.230690956	1.0
15	0	101.8159943	1.315000057	4.929852009	2.341365099	5.746170044	1.0
[Spine1]
13	0	100.8349991	-10.00800037	6.730741501	-6.01630497	2.652437925	1.0
14	0	100.8349991	-10.00800037	8.052607536	-5.973071575	1.655555606	1.0
15	0	100.8349991	-10.00800037	9.911253929	-4.729822636	0.689807713	1.0
[Spine2]
13	0	91	-13.73399925	3.565670013	-6.42936039	6.978858948	1.0
14	0	91	-13.73399925	4.850851536	-6.464670658	5.892473698	1.0
15	0	91	-13.73399925	6.705493927	-5.304742813	4.868463039	1.0
[Neck]
13	0	166.7169952	-25.16200066	0.5824503303	1.75028646	-2.030473709	1.0
14	0	166.7169952	-25.16200066	-6.095089912	2.471580267	-3.592046499	1.0
15	0	166.7169952	-25.16200066	-11.26042271	1.950949669	-3.589828968	1.0
[Head]
13	0	96.17900085	16.84999847	-30.52972603	9.612328529	-9.683811188	1.0
14	0	96.17900085	16.84999847	-25.61450386	10.53043175	-5.540610313	1.0
15	0	96.17900085	16.84999847	-22.25216866	8.461759567	-2.327509403	1.0
[LeftEye]
13	30.6760006	64.09500122	92.83599854	0	0	0	1.0
14	30.6760006	64.09500122	92.83599854	0	0	0	1.0
15	30.6760006	64.09500122	92.83599854	0	0	0	1.0
[RightEye]
13	-30.6760006	64.09500122	92.83499908	0	0	0	1.0
14	-30.6760006	64.09500122	92.83499908	0	0	0	1.0
15	-30.6760006	64.09500122	92.83499908	0	0	0	1.0
[LeftShoulder]
13	45.70400238	109.4599991	-26.28000069	3.027353764	-14.38191128	-20.22294807	1.0
14	45.70400238	109.4599991	-26.28000069	3.333776474	-14.37553883	-21.54368401	1.0
15	45.70400238	109.4599991	-26.28000069	3.647572517	-15.33382225	-21.83750153	1.0
[LeftArm]
13	105.923996	-5.24600029	-22.32099915	-7.133960724	-17.37062263	-46.07868576	1.0
14	105.923996	-5.24600029	-22.32099915	-12.28039265	-19.9518013	-40.2216835	1.0
15	105.923996	-5.24600029	-22.32099915	-12.23061752	-17.39956474	-40.97206879	1.0
[LeftForeArm]
13	278.414978	-0.0009999999311	0	-9.155273438e-05	-94.58840942	-0.0001525878906	1.0
14	278.414978	-0.0009999999311	0	9.15527271e-05	-98.31557465	-0.0003814697266	1.0
15	278.414978	-0.0009999999311	0	-7.629396714e-05	-102.5062332	-0.000152587847	1.0
[LeftHand]
13	283.2879944	0	0	-3.568277836	-16.70531082	13.48510456	1.0
14	283.2879944	0	0	-13.07110786	-19.83008957	11.4358778	1.0
15	283.2879944	0	0	-18.36240387	-21.72009277	9.377062798	1.0
[LeftHandThumb1]
13	24.6609993	-15.75	26.8239994	12.12594414	-3.91882205	9.334634781	1.0
14	24.6609993	-15.75	26.8239994	12.08707142	-4.003616333	9.285346031	1.0
15	24.6609993	-15.75	26.8239994	12.13334274	-3.902942896	9.343957901	1.0
[LeftHandThumb2]
13	32.29800034	-18.64699936	18.64699936	0.943328023	18.34295845	0.9447895885	1.0
14	32.29800034	-18.64699936	18.64699936	1.320415974	19.49442101	-2.563067913	1.0
15	32.29800034	-18.64699936	18.64699936	3.196670771	17.44962692	4.018084049	1.0
[LeftHandThumb3]
13	26.52600098	-15.31499958	15.31499958	2.923144579	-2.502565384	5.096699715	1.0
14	26.52600098	-15.31499958	15.31499958	1.534180403	-0.9190918207	7.01777792	1.0
15	26.52600098	-15.31499958	15.31499958	2.278678656	-8.452215195	-2.188029289	1.0
[LeftHandThumb4]
13	19.54599953	-11.28499985	11.28499985	0	0	0	1.0
14	19.54599953	-11.28499985	11.28499985	0	0	0	1.0
15	19.54599953	-11.28499985	11.28499985	0	0	0	1.0
[LeftHandIndex1]
13	91.09299469	-5.170999527	22.60099792	-5.366496086	2.665011406	-83.86430359	1.0
14	91.09299469	-5.170999527	22.60099792	-6.666550636	3.55129981	-85.80606842	1.0
15	91.09299469	-5.170999527	22.60099792	-11.27765751	7.749940872	-93.73181915	1.0
[LeftHandIndex2]
13	36.76399994	0	0	-3.620647192	5.415884972	-60.7614975	1.0
14	36.76399994	0	0	-3.426715374	5.335987091	-58.69187927	1.0
15	36.76399994	0	0	-3.270682335	5.265645981	-57.0030632	1.0
[LeftHandIndex3]
13	28.83100128	0	0	-1.898858547	4.041546822	-47.67098999	1.0
14	28.83100128	0	0	-1.748718143	3.900110722	-45.61247253	1.0
15	28.83100128	0	0	-1.618166327	3.768408775	-43.76225281	1.0
[LeftHandIndex4]
13	23.92700005	0	0	0	0	0	1.0
14	23.92700005	0	0	0	0	0	1.0
15	23.92700005	0	0	0	0	0	1.0
[LeftHandMiddle1]
13	95.33399963	0	0	-10.07243729	-0.648065269	-80.40502167	1.0
14	95.33399963	0	0	-10.34815884	2.611882448	-82.60953522	1.0
15	95.33399963	0	0	-11.09886742	8.234972	-89.02294922	1.0
[LeftHandMiddle2]
13	36.98199844	0	0	-3.637961864	5.312082291	-60.04174042	1.0
14	36.98199844	0	0	-3.17966342	5.116544724	-55.10564423	1.0
15	36.98199844	0	0	-2.885252714	4.965241432	-51.82756042	1.0
[LeftHandMiddle3]
13	29.50900078	0	0	-2.393234015	4.807991982	-53.5293045	1.0
14	29.50900078	0	0	-2.203693151	4.667950153	-51.15181351	1.0
15	29.50900078	0	0	-2.103249073	4.588635445	-49.86075211	1.0
[LeftHandMiddle4]
13	28.3390007	0	0	0	0	0	1.0
14	28.3390007	0	0	0	0	0	1.0
15	28.3390007	0	0	0	0	0	1.0
[LeftHandRing1]
13	91.04499817	-0.4390000105	-18.65100098	-9.635131836	3.388331413	-78.43075562	1.0
14	91.04499817	-0.4390000105	-18.65100098	-10.23444843	4.375689983	-82.95987701	1.0
15	91.04499817	-0.4390000105	-18.65100098	-10.72629261	7.454807281	-85.86057281	1.0
[LeftHandRing2]
13	31.54000092	0	0	-2.756636381	5.427214622	-61.33781815	1.0
14	31.54000092	0	0	-2.57648921	5.315364361	-59.19059372	1.0
15	31.54000092	0	0	-2.501777887	5.266227722	-58.28532028	1.0
[LeftHandRing3]
13	29.37700081	0	0	-2.222765684	5.116868973	-58.94601059	1.0
14	29.37700081	0	0	-2.065787077	4.996051311	-56.94793701	1.0
15	29.37700081	0	0	-1.999022484	4.941943169	-56.08137894	1.0
[LeftHandRing4]
13	26.47500038	0	0	0	0	0	1.0
14	26.47500038	0	0	0	0	0	1.0
15	26.47500038	0	0	0	0	0	1.0
[LeftHandPinky1]
13	80.77799988	-4.887000084	-38.06099701	-10.84184456	-0.9166970849	-88.08036041	1.0
14	80.77799988	-4.887000084	-38.06099701	-11.45640945	2.919082403	-93.31508636	1.0
15	80.77799988	-4.887000084	-38.06099701	-16.13443947	7.330980301	-103.3362045	1.0
[LeftHandPinky2]
13	36	0	0	-3.023202181	4.559905529	-58.81896973	1.0
14	36	0	0	-2.921634197	4.504632473	-57.65855026	1.0
15	36	0	0	-2.776160955	4.420701027	-55.97342682	1.0
[LeftHandPinky3]
13	21.14200211	0	0	-2.451091766	5.076973438	-50.31510162	1.0
14	21.14200211	0	0	-2.433551073	5.064801693	-50.10140228	1.0
15	21.14200211	0	0	-2.314455032	4.979405403	-48.6341095	1.0
[LeftHandPinky4]
13	19.75699997	0	0	0	0	0	1.0
14	19.75699997	0	0	0	0	0	1.0
15	19.75699997	0	0	0	0	0	1.0
[RightShoulder]
13	-45.70000076	109.4620056	-26.28000069	-3.600257397	11.9376173	10.68698025	1.0
14	-45.70000076	109.4620056	-26.28000069	-3.64647913	11.54348564	9.483442307	1.0
15	-45.70000076	109.4620056	-26.28000069	-3.750462055	10.0668745	8.137859344	1.0
[RightArm]
13	-105.9280014	-5.248000145	-22.32099915	27.90146828	-30.67868423	26.99824905	1.0
14	-105.9280014	-5.248000145	-22.32099915	17.46753311	-36.14419937	35.68465042	1.0
15	-105.9280014	-5.248000145	-22.32099915	7.602941513	-32.25241852	48.23768234	1.0
[RightForeArm]
13	-278.414978	0	0	0	116.3120117	0	1.0
14	-278.414978	0	0	3.051757085e-05	121.9742584	1.525878088e-05	1.0
15	-278.414978	0	0	3.051757267e-05	119.527832	3.051757813e-05	1.0
[RightHand]
13	-283.2879944	0	0.0009999999311	-4.951459408	9.44397831	0.6807116866	1.0
14	-283.2879944	0	0.0009999999311	-4.381394386	19.57999992	2.237465858	1.0
15	-283.2879944	0	0.0009999999311	-0.4817973971	24.32641411	1.314888716	1.0
[RightHandPinky1]
13	-80.76699829	-4.885000229	-38.06000137	-10.97835541	-11.23488045	65.04727173	1.0
14	-80.76699829	-4.885000229	-38.06000137	-11.27106857	-10.76409626	68.92855835	1.0
15	-80.76699829	-4.885000229	-38.06000137	-12.49466133	-11.59842587	71.9125824	1.0
[RightHandPinky2]
13	-36	0	0.0009999999311	-5.64524889	-5.227329254	86.26267242	1.0
14	-36	0	0.0009999999311	-5.541749954	-5.225266457	85.22338104	1.0
15	-36	0	0.0009999999311	-5.253715515	-5.209650517	82.32687378	1.0
[RightHandPinky3]
13	-21.14200211	0	0	-2.834065437	-2.203400373	53.06758118	1.0
14	-21.14200211	0	0	-2.746931076	-2.14780426	52.03440475	1.0
15	-21.14200211	0	0	-2.509546041	-1.984705091	49.15562057	1.0
[RightHandPinky4]
13	-19.75699997	0	0	0	0	0	1.0
14	-19.75699997	0	0	0	0	0	1.0
15	-19.75699997	0	0	0	0	0	1.0
[RightHandRing1]
13	-91.03599548	-0.4390000105	-18.65100098	-8.726604462	-6.737809181	70.11912537	1.0
14	-91.03599548	-0.4390000105	-18.65100098	-8.964232445	-6.90675354	71.8527832	1.0
15	-91.03599548	-0.4390000105	-18.65100098	-8.827062607	-8.476467133	70.18190002	1.0
[RightHandRing2]
13	-31.54000092	0	0	-3.544682026	-5.816182137	70.2544632	1.0
14	-31.54000092	0	0	-3.556046009	-5.820728779	70.37837219	1.0
15	-31.54000092	0	0	-3.552443504	-5.819265366	70.33912659	1.0
[RightHandRing3]
13	-29.37700081	0	0	-1.939956546	-2.982192755	54.23939514	1.0
14	-29.37700081	0	0	-1.949799657	-2.990828753	54.37126541	1.0
15	-29.37700081	0	0	-1.947117805	-2.98849082	54.33543777	1.0
[RightHandRing4]
13	-26.47500038	0	0	0	0	0	1.0
14	-26.47500038	0	0	0	0	0	1.0
15	-26.47500038	0	0	0	0	0	1.0
[RightHandMiddle1]
13	-95.32500458	0	0	-6.271647453	-7.04347229	51.37017822	1.0
14	-95.32500458	0	0	-6.448357105	-7.196696758	52.6153717	1.0
15	-95.32500458	0	0	-6.004581928	-7.707909107	49.40718079	1.0
[RightHandMiddle2]
13	-36.98199844	0	0	-4.026874542	-5.442430973	64.11170197	1.0
14	-36.98199844	0	0	-4.015363216	-5.438997269	63.99277115	1.0
15	-36.98199844	0	0	-4.046057224	-5.448092461	64.30990601	1.0
[RightHandMiddle3]
13	-29.50900078	0	0	-2.639392376	-4.810421944	56.40594101	1.0
14	-29.50900078	0	0	-2.629366875	-4.804035664	56.28602982	1.0
15	-29.50900078	0	0	-2.655097246	-4.820342064	56.59337616	1.0
[RightHandMiddle4]
13	-28.3390007	0	0.0009999999311	0	0	0	1.0
14	-28.3390007	0	0.0009999999311	0	0	0	1.0
15	-28.3390007	0	0.0009999999311	0	0	0	1.0
[RightHandIndex1]
13	-91.08300018	-5.167999744	22.60099792	-4.740904331	-8.063621521	51.74934769	1.0
14	-91.08300018	-5.167999744	22.60099792	-5.408368111	-8.437176704	53.75136566	1.0
15	-91.08300018	-5.167999744	22.60099792	-5.47717905	-8.60794735	53.00064087	1.0
[RightHandIndex2]
13	-36.76399994	0	0	-3.380984545	-5.315411091	58.20320892	1.0
14	-36.76399994	0	0	-3.323908567	-5.289758682	57.58571243	1.0
15	-36.76399994	0	0	-3.334968805	-5.294779301	57.7057457	1.0
[RightHandIndex3]
13	-28.83100128	0	0	-2.032152891	-3.106768847	48.75736618	1.0
14	-28.83100128	0	0	-1.986015797	-3.065909147	48.14258957	1.0
15	-28.83100128	0	0	-1.99493897	-3.073902607	48.26210022	1.0
[RightHandIndex4]
13	-23.92700005	0	0	0	0	0	1.0
14	-23.92700005	0	0	0	0	0	1.0
15	-23.92700005	0	0	0	0	0	1.0
[RightHandThumb1]
13	-24.64799881	-15.72700024	26.82600021	10.43053532	-5.698483467	-5.939530849	1.0
14	-24.64799881	-15.72700024	26.82600021	13.59122849	-2.719922304	-5.279520512	1.0
15	-24.64799881	-15.72700024	26.82600021	15.34000492	-0.5076885223	-5.097749233	1.0
[RightHandThumb2]
13	-32.29800034	-18.64699936	18.64699936	4.450273991	-22.70461082	-4.580922127	1.0
14	-32.29800034	-18.64699936	18.64699936	4.450273991	-22.70461082	-4.580922127	1.0
15	-32.29800034	-18.64699936	18.64699936	4.450273991	-22.70461082	-4.580922127	1.0
[RightHandThumb3]
13	-26.52600098	-15.31399918	15.31399918	-12.58338261	9.9640131	3.83227396	1.0
14	-26.52600098	-15.31399918	15.31399918	-12.58338261	9.9640131	3.83227396	1.0
15	-26.52600098	-15.31399918	15.31399918	-12.58338261	9.9640131	3.83227396	1.0
[RightHandThumb4]
13	-19.54599953	-11.28499985	11.28499985	0	0	0	1.0
14	-19.54599953	-11.28499985	11.28499985	0	0	0	1.0
15	-19.54599953	-11.28499985	11.28499985	0	0	0	1.0
[LeftUpLeg]
13	82.07800293	-67.51699829	-15.99599934	-10.5672884	6.594803333	0.6918952465	1.0
14	82.07800293	-67.51699829	-15.99599934	-9.291952133	4.535363674	-1.428023219	1.0
15	82.07800293	-67.51699829	-15.99599934	-10.56832504	4.691271305	-0.7300336361	1.0
[LeftLeg]
13	0	-443.7049866	2.845999956	55.15730286	-3.441454887	4.212830544	1.0
14	0	-443.7049866	2.845999956	75.29059601	-5.071939468	0.9871368408	1.0
15	0	-443.7049866	2.845999956	97.76442719	-4.375004292	3.601102352	1.0
[LeftFoot]
13	0	-444.2789917	-29.8219986	13.06085014	-2.061956644	-14.94089985	1.0
14	0	-444.2789917	-29.8219986	9.375736237	-0.1776105762	-15.23819637	1.0
15	0	-444.2789917	-29.8219986	9.986560822	2.199111938	-19.52697563	1.0
[LeftToeBase]
13	0	-87.28699493	107.1060028	3.531060696	5.006519132e-06	3.380731414e-06	1.0
14	0	-87.28699493	107.1060028	6.346938133	-9.003068158e-07	-6.940659659e-06	1.0
15	0	-87.28699493	107.1060028	7.298225403	-2.090292583e-06	-1.12238979e-06	1.0
[RightUpLeg]
13	-82.07800293	-67.51699829	-15.99599934	-48.76672363	0.5115115643	10.95070171	1.0
14	-82.07800293	-67.51699829	-15.99599934	-44.01221085	0.5100882053	13.4497509	1.0
15	-82.07800293	-67.51699829	-15.99599934	-41.06537247	-1.111774325	15.31860733	1.0
[RightLeg]
13	0	-443.7049866	2.861999989	35.58156586	5.13598156	-0.3016138673	1.0
14	0	-443.7049866	2.861999989	19.34403419	5.109262466	-2.150327206	1.0
15	0	-443.7049866	2.861999989	24.30417252	7.354928493	-0.947461307	1.0
[RightFoot]
13	0	-444.2770081	-29.83799934	-7.986398697	-3.716325283	4.95687151	1.0
14	0	-444.2770081	-29.83799934	-12.54271984	1.216422081	6.578050613	1.0
15	0	-444.2770081	-29.83799934	1.126702428	1.230204105	0.3804272711	1.0
[RightToeBase]
13	0	-87.28699493	107.1060028	-5.140494347	1.338690481e-06	-1.176879437e-06	1.0
14	0	-87.28699493	107.1060028	-2.290828943	3.02991026e-07	-3.634254199e-06	1.0
15	0	-87.28699493	107.1060028	-9.662686348	8.665276141e-07	3.059049334e-07	1.0
[EndOfFile]
